<svg xmlns="http://www.w3.org/2000/svg" width="105.296" height="44.585" viewBox="0 0 105.296 44.585" fill="#4c4d4d">
    <defs>
        <linearGradient id="linear-gradient" x1="1.057" y1=".19" x2=".068" y2="1.128">
            <stop offset="0" stop-color="#f0de1c"/>
            <stop offset="1" stop-color="#f6a723"/>
        </linearGradient>
        <linearGradient id="linear-gradient-2" x1=".039" y1="1.009" x2=".967" y2=".276">
            <stop offset="0" stop-color="#4b9aba"/>
            <stop offset="1" stop-color="#67bfb5"/>
        </linearGradient>
        <linearGradient id="linear-gradient-3" x1="1.354" y1=".094" x2="-.209" y2="1.104">
            <stop offset="0" stop-color="#755197"/>
            <stop offset="1" stop-color="#3b4394"/>
        </linearGradient>
        <linearGradient id="linear-gradient-4" x1=".64" y1=".36" x2="-3.604" y2="4.604">
            <stop offset="0" stop-color="#725398"/>
            <stop offset="1" stop-color="#41419e"/>
        </linearGradient>
    </defs>
    <g>
        <path d="M172.022 97.236c0 2.779-1.414 4.193-4.193 4.193a5.143 5.143 0 0 1-3.049-.875v-2.628h.117a3.3 3.3 0 0 0 2.646 1.281c1.3 0 1.987-.674 1.987-2.224v-6.9h2.492z" transform="translate(-125.917 -70.266)"/>
        <path d="M200.471 106.687a2.344 2.344 0 0 0 2.578 1.669 3.906 3.906 0 0 0 2.76-.961h.083v2.122a5.2 5.2 0 0 1-2.945.74c-2.8 0-4.687-1.682-4.687-4.125a3.948 3.948 0 0 1 4.114-4.132c2.458 0 3.989 1.463 3.989 3.789v.9zm0-1.328h3.906a1.737 1.737 0 0 0-1.935-1.45 1.9 1.9 0 0 0-1.971 1.437z" transform="translate(-150.699 -79.085)"/>
        <path d="M235.614 106.687a2.343 2.343 0 0 0 2.575 1.669 3.908 3.908 0 0 0 2.763-.961h.083v2.122a5.2 5.2 0 0 1-2.945.74c-2.8 0-4.7-1.682-4.7-4.125a3.96 3.96 0 0 1 4.127-4.132c2.458 0 3.989 1.463 3.989 3.789v.9zm0-1.328h3.906a1.737 1.737 0 0 0-1.935-1.45 1.9 1.9 0 0 0-1.971 1.437z" transform="translate(-176.702 -79.085)"/>
        <path d="M270.32 87.75h2.206v11.783h-2.206z" transform="translate(-204.029 -68.542)"/>
        <path d="m292.273 110.184-.034-1.414h-.031a3.644 3.644 0 0 1-3.234 1.581 4.1 4.1 0 0 1 0-8.2 3.674 3.674 0 0 1 3.234 1.583h.031l.034-1.414h.961v7.864zm-.117-3.906a3.007 3.007 0 1 0-3.013 3.081 2.929 2.929 0 0 0 3.013-3.082z" transform="translate(-214.904 -79.196)"/>
        <path d="M324.849 91.03a.753.753 0 0 1-.781.781.742.742 0 0 1-.781-.781.755.755 0 0 1 .781-.781.763.763 0 0 1 .781.781zm-1.349 2.492h1.128v7.859H323.5z" transform="translate(-243.231 -70.39)"/>
        <path d="m341.388 99.533-.034-1.414h-.034a3.611 3.611 0 0 1-3.22 1.581 4.1 4.1 0 0 1 0-8.2 3.675 3.675 0 0 1 3.1 1.414h.034V87.75h1.128v11.783zm-.13-3.906a3 3 0 1 0-3 3.081 2.927 2.927 0 0 0 2.999-3.081z" transform="translate(-251.302 -68.542)"/>
        <path d="M385.546 105.627v4.594h-1.128v-4.492c0-1.651-.742-2.526-2.122-2.526-1.5 0-2.323 1.042-2.323 2.93v4.088h-1.13v-4.492c0-1.651-.724-2.526-2.122-2.526-1.516 0-2.323 1.042-2.323 2.864v4.167h-1.128v-7.864h.971l.034 1.245h.034a2.823 2.823 0 0 1 2.661-1.414 2.638 2.638 0 0 1 2.643 1.667h.034a2.849 2.849 0 0 1 2.914-1.667c1.925-.009 2.985 1.22 2.985 3.426z" transform="translate(-280.25 -79.233)"/>
        <path d="M25.955 93.266A14.286 14.286 0 0 1 15.8 89.055a2.047 2.047 0 1 1 2.9-2.893 10.286 10.286 0 0 0 17.546-7.273V68.777a2.047 2.047 0 1 1 4.094 0v10.111a14.4 14.4 0 0 1-14.385 14.378z" transform="translate(-15.2 -53.033)" style="fill:url(#linear-gradient)"/>
        <path d="M53.054 114.179a1.213 1.213 0 1 1 0-2.424 16.13 16.13 0 0 0 16.109-16.109v-5.252a1.213 1.213 0 1 1 2.424 0v5.245a18.554 18.554 0 0 1-18.533 18.54z" transform="translate(-42.257 -69.596)" style="fill:url(#linear-gradient-2)"/>
        <path d="M32.354 70.72a8.541 8.541 0 0 1-8.534-8.531v-1.562a3.07 3.07 0 0 1 6.14 0v1.562a2.393 2.393 0 0 0 4.784 0V47.39a3.07 3.07 0 1 1 6.14 0v14.8a8.541 8.541 0 0 1-8.531 8.531z" transform="translate(-21.575 -36.407)" style="fill:url(#linear-gradient-3)"/>
        <circle cx="3.143" cy="3.143" r="3.143" transform="translate(13.169)" style="fill:url(#linear-gradient-4)"/>
    </g>
</svg>
